<?xml version="1.0" encoding="utf-8"?>
<!-- Generator: Adobe Illustrator 23.0.2, SVG Export Plug-In . SVG Version: 6.00 Build 0)  -->
<svg version="1.1" id="Layer_1" xmlns="http://www.w3.org/2000/svg" xmlns:xlink="http://www.w3.org/1999/xlink" x="0px" y="0px"
	 viewBox="0 0 391.459 237.1836" enable-background="new 0 0 391.459 237.1836" xml:space="preserve">
<g>
	<path d="M92,145.8735c-1.4864-1.8716-2.4375-4.1914-2.586-6.7417c-0.4004-6.831-0.6015-13.3555-0.6015-19.3935
		C88.8203,105.5967,89.873,93.686,92,83.7085V70.8506H0v142.667h92V145.8735z M24.5,181.1836v-38.666h32v38.666H24.5z
		 M67.5,171.6836h-8.668v-31H35.5v-7.666h32V171.6836z M81.998,102.6836H10V80.8515h71.998V102.6836z"/>
	<rect x="3.75" y="216.1836" width="16" height="8"/>
	<rect x="72.25" y="216.1836" width="16" height="8"/>
	<path d="M247.1758,73.6113c1.5703,2.8213,2.9296,5.2661,4.0253,7.2402h30.4395v21.8321h-72v-9.6241
		c-0.6406,0.0201-1.2832,0.042-1.9238,0.042c-2.7989-0.0009-5.4903-0.1958-8.0762-0.538v120.9541h92V70.8506h-46.0195
		c0.0761,0.1338,0.166,0.2583,0.2402,0.3935L247.1758,73.6113z M235.8086,174.6631c1.7539,2.8701,3.7168,2.9736,4.2754,3.1601
		c0.5566,0.1865,1.0546,0.7451,0.9296,0.9922h-13.9921c-0.125-0.2471,0.3711-0.8057,0.9296-0.9922
		c0.5586-0.1865,2.5215-0.29,4.2754-3.1601c1.8594-3.0342,0.7227-11.3575,0.0606-13.3829
		c-0.5938-1.8105-1.9238-2.6533-5.0801-7.3076c-2.8965-4.2744-0.0312-14.3935,0.5742-16.3847
		c0.0157-0.4444,0.377-0.7998,0.8242-0.7998h10.8243c0.4472,0,0.8105,0.3554,0.8242,0.7998
		c0.6055,1.9912,3.4687,12.1103,0.5742,16.3847c-3.1562,4.6543-4.4883,5.4971-5.0801,7.3076
		C235.084,163.3056,233.9511,171.6289,235.8086,174.6631z M265.3476,177.0176c0,0.9921-0.7832,1.7978-1.75,1.7978h-13.0507
		c-0.9668,0-1.75-0.8057-1.75-1.7978c0,0,0-19.6856,0-25.0323c0-5.3486,2.041-9.1377,3.789-14.7773
		c1.2598-4.0518,1.7149-15.9492,1.7149-15.9492l0.0195-1.0625h5.5039l0.0215,1.0625c0,0,0.4531,11.8974,1.7109,15.9492
		c1.75,5.6396,3.791,9.4287,3.791,14.7773C265.3476,157.332,265.3476,177.0176,265.3476,177.0176z"/>
	<rect x="203.3906" y="216.1836" width="16" height="8"/>
	<rect x="271.8906" y="216.1836" width="16" height="8"/>
	<path d="M391.459,70.8506h-91.9981v142.667h91.9981V70.8506z M358.7929,139.9804c0,3.2715-5.9687,5.9239-13.332,5.9239
		c-7.3633,0-13.334-2.6524-13.334-5.9239c0-3.2714,5.9707-5.9238,13.334-5.9238
		C352.8242,134.0566,358.7929,136.709,358.7929,139.9804z M345.4609,176.0176c-7.0957,0-12.8828-2.4654-13.293-5.5723h-0.039
		v-0.3345c0-0.0058-0.002-0.0112-0.002-0.0171c0-0.0058,0.002-0.0112,0.002-0.0171v-25.227
		c2.7949,2.2178,7.5703,3.5937,13.332,3.5937c5.7637,0,10.541-1.3769,13.334-3.5962v25.5982h-0.041
		C358.3418,173.5522,352.5566,176.0176,345.4609,176.0176z M381.459,102.6836h-71.9981V80.8515h71.9981V102.6836z"/>
	<rect x="303.2109" y="216.1836" width="16" height="8"/>
	<rect x="371.709" y="216.1836" width="16" height="8"/>
	<path d="M339.7578,137.7226c-2.0859,0-3.7774,1.0108-3.7774,2.2578c0,1.2461,1.6915,2.2559,3.7774,2.2559
		c2.0879,0,3.0371-1.0098,3.0371-2.2559C342.7949,138.7334,341.8457,137.7226,339.7578,137.7226z"/>
	<path d="M102.0957,150.4092c-0.2207,0.0146-0.4688,0.0205-0.709,0.0205c-0.5313,0-1.0527-0.0474-1.5664-0.1148v63.2027h11.9551
		v-69.0791C109.8203,147.8047,106.2656,150.1621,102.0957,150.4092z"/>
	<path d="M181.8183,102.6836h-7.9511v110.834h17.9531V91.0044c-3.6074-0.9624-6.9473-2.1953-10.002-3.5811V102.6836z"/>
	<rect x="103.5703" y="216.1836" width="8.2051" height="8"/>
	<rect x="173.8672" y="216.1836" width="14.2031" height="8"/>
	<path d="M223.1328,66.2915c0.8242-0.1768,1.6641-0.2759,2.5098-0.2759c5.1406,0,9.707,3.2734,11.3613,8.1455
		c1.8887,5.584-0.582,11.5996-5.5703,14.3511c2.4043,4.3266,3.9804,7.1621,4.33,7.7925c0.5176,0.9287,1.5958,1.8925,2.9883,1.1191
		c2.6543-1.4746,5.6231-3.125,5.6231-3.125s2.9687-1.6504,5.6211-3.125c1.3925-0.7734,1.1445-2.1992,0.6269-3.1279
		c-0.5156-0.9287-3.6855-6.6319-8.2578-14.8594c-3.4707-6.2432-9.5312-11.0352-12.2539-12.9854l-3.9824-7.164l0.3965-0.2207
		c0.6972-0.3877,0.9492-1.2656,0.5625-1.9619c-0.3868-0.6963-1.2657-0.9463-1.9629-0.5586l-7.959,4.4248
		c-0.6953,0.3867-0.9473,1.2637-0.5606,1.9599c0.3868,0.6963,1.2657,0.9463,1.961,0.5596l0.3984-0.2226l3.9824,7.166
		C222.9863,64.7636,223.0449,65.4809,223.1328,66.2915z"/>
	<path d="M101.3886,146.4297c0.1563,0,0.3145-0.0049,0.4727-0.0137c4.4102-0.2598,7.7773-4.0449,7.5176-8.4551
		c-0.3906-6.6504-0.5664-12.708-0.5664-18.2226c-0.0352-24.2129,3.4961-37.8164,6.9629-44.917v149.999
		c0,6.8301,5.5371,12.3633,12.3632,12.3633c6.8282,0,12.3653-5.5332,12.3653-12.3633v-90.2715h4.6347v90.2715
		c0,6.8301,5.5372,12.3633,12.3633,12.3633c6.8282,0,12.3653-5.5332,12.3653-12.3633V75.4668
		c0.3515,0.2773,0.6972,0.5547,1.0644,0.832c8.3028,6.2852,20.8086,12.7988,36.7676,12.8027c0.0059,0,0.0117,0,0.0176,0
		c6.3926,0,13.2812-1.0605,20.4902-3.5097c4.1856-1.418,6.4258-5.959,5.0078-10.1446c-1.4179-4.1836-5.9609-6.4248-10.1465-5.0058
		v-0.002c-5.6308,1.9082-10.7207,2.6602-15.3691,2.6621c-11.4766,0.0039-20.6211-4.6679-27.1191-9.5664
		c-3.2247-2.4365-5.7286-4.9004-7.377-6.705c-0.8262-0.9024-1.4395-1.6397-1.8242-2.1231
		c-0.1914-0.2422-0.3301-0.4199-0.4082-0.5254c-0.0254-0.0342-0.0449-0.0605-0.0586-0.0791v-0.001
		c-0.0117-0.0175-0.0137-0.0195-0.0137-0.0195c-1.5039-2.1016-3.9238-3.3486-6.5098-3.3486h-1.5625
		c-0.2265-0.0205-0.455-0.0342-0.6875-0.0342h-38.6347c-0.1699,0-0.336,0.0137-0.5039,0.0254
		c-1.8164,0.04-4.7481,0.4512-8.0742,2.1289c-5.3789,2.667-11.1778,8.501-15.2364,18.8398
		c-4.1054,10.3809-6.8652,25.3868-6.8769,48.045c0,5.8574,0.1894,12.2255,0.5957,19.1601
		C93.6562,143.1494,97.1816,146.4297,101.3886,146.4297z"/>
	<circle cx="142.8222" cy="22.5" r="22.5"/>
</g>
</svg>
